<?xml version="1.0" encoding="iso-8859-1"?>
<!-- Generator: Adobe Illustrator 19.0.0, SVG Export Plug-In . SVG Version: 6.00 Build 0)  -->
<svg version="1.1" id="Layer_1" xmlns="http://www.w3.org/2000/svg" xmlns:xlink="http://www.w3.org/1999/xlink" x="0px" y="0px"
	 viewBox="0 0 512 512" style="enable-background:new 0 0 512 512;" xml:space="preserve">
<g>
	<g>
		<path d="M501.801,445.935h-18.359v-31.618c0-5.632-4.567-10.199-10.199-10.199h-10.08l-9.129-233.698l6.826-21.914h12.383
			c5.632,0,10.199-4.567,10.199-10.199V115.48h12.239c4.897,0,9.102-3.479,10.019-8.289c0.916-4.81-1.713-9.592-6.266-11.394
			L259.752,0.945c-2.41-0.955-5.094-0.955-7.506,0L12.565,95.798c-4.553,1.801-7.182,6.584-6.266,11.394
			c0.917,4.81,5.122,8.289,10.019,8.289h12.239v22.827c0,5.632,4.566,10.199,10.199,10.199h12.383l6.826,21.912l-9.128,233.699
			h-10.08c-5.633,0-10.199,4.567-10.199,10.199v31.617H10.199C4.566,445.934,0,450.501,0,456.133v45.438
			c0,5.632,4.566,10.199,10.199,10.199h491.602c5.632,0,10.199-4.567,10.199-10.199v-45.438
			C512,450.502,507.433,445.935,501.801,445.935z M48.956,128.109v-12.628h286.598c5.632,0,10.199-4.567,10.199-10.199
			s-4.567-10.199-10.199-10.199H69.808L256,21.398l207.216,82.005l-0.172,24.706H48.956z M411.43,179.262h22.536l8.784,224.858
			h-40.102L411.43,179.262z M405.901,148.508h33.594l-3.226,10.355h-27.142L405.901,148.508z M391.36,170.419l-9.128,233.699h-30.2
			l-9.129-233.698l6.826-21.914h34.806L391.36,170.419z M300.298,179.262h22.536l8.784,224.858h-40.103L300.298,179.262z
			 M294.768,148.508h33.595l-3.226,10.355h-27.143L294.768,148.508z M231.771,170.419l6.826-21.912h34.806l6.826,21.914
			L271.1,404.119h-30.201v-0.001L231.771,170.419z M189.167,179.262h22.536l8.784,224.858h-40.103L189.167,179.262z
			 M183.638,148.508h33.594l-3.226,10.355h-27.142L183.638,148.508z M169.099,170.419l-9.129,233.699h-30.201l-9.129-233.699
			l6.826-21.912h34.807L169.099,170.419z M78.034,179.262h22.536l8.784,224.858H69.251L78.034,179.262z M72.505,148.507h33.594
			l-3.226,10.355H75.731L72.505,148.507z M48.956,424.517h414.088v21.418H48.956V424.517z M491.602,491.374H20.398v-25.04h471.203
			V491.374z"/>
	</g>
</g>
<g>
	<g>
		<path d="M383.49,95.083h-9.179c-5.632,0-10.199,4.567-10.199,10.199c0,5.632,4.567,10.199,10.199,10.199h9.179
			c5.632,0,10.199-4.567,10.199-10.199C393.689,99.65,389.122,95.083,383.49,95.083z"/>
	</g>
</g>
<g>
</g>
<g>
</g>
<g>
</g>
<g>
</g>
<g>
</g>
<g>
</g>
<g>
</g>
<g>
</g>
<g>
</g>
<g>
</g>
<g>
</g>
<g>
</g>
<g>
</g>
<g>
</g>
<g>
</g>
</svg>
