<?xml version="1.0" encoding="iso-8859-1"?>
<!-- Generator: Adobe Illustrator 19.0.0, SVG Export Plug-In . SVG Version: 6.00 Build 0)  -->
<svg version="1.1" id="Capa_1" xmlns="http://www.w3.org/2000/svg" xmlns:xlink="http://www.w3.org/1999/xlink" x="0px" y="0px"
	 viewBox="0 0 538.043 538.043" style="enable-background:new 0 0 538.043 538.043;" xml:space="preserve">
<g>
	<path d="M435.756,454.909c-29.82-13.594-79.75-36.336-81.591-52.812c-1.411-12.543-2.056-31.147-2.738-50.899
		c-1.052-30.298-2.152-61.624-6.253-75.781c-4.986-17.158-16.416-34.148-22.347-42.242c3.575-3.24,7.879-8.597,9.78-16.476
		c2.523-10.414-0.849-22.777-2.702-28.253c6.995-11.574,27.775-46.344,29.879-55.048c4.783-19.752-22.562-73.473-22.837-73.999
		c-1.208-2.308-3.766-7.019-7.03-11.586c1.662-4.065,2.618-8.477,2.618-13.128C332.535,15.555,316.98,0,297.861,0
		c-19.118,0-34.686,15.567-34.686,34.686s15.555,34.686,34.686,34.686c4.46,0,8.692-0.921,12.614-2.463
		c2.248,1.519,4.974,3.396,5.512,4.101c5.608,12.279,10.761,49.536,11.072,55.466c-4.197,7.031-26.782,33.49-37.508,36.121
		c-0.251-1.172-0.347-3.109-0.227-5.058c7.652-6.158,17.433-18.772,10.45-31.888c-1.495-2.798-4.854-5.165-7.963-6.851
		c0-3.922-1.196-8.597-5.285-11.801c-3.994-3.133-10.474-3.264-14.396-2.104c-5.105-2.69-16.978-5.213-25.683,0.012
		c-15.615,9.314-14.922,23.746-14.324,27.942c0.562,3.994,1.602,7.449,2.355,9.589c-2.248,7.114-3.157,18.521,4.95,25.3
		c4.926,4.137,11.992,4.663,16.954,2.929c0.203,0.49,0.335,0.801,0.419,0.873c-0.945,0.933-5.117,3.073-8.178,4.639
		c-7.007,3.611-14.97,7.676-19.143,12.841c-5.404,6.696-27.488,58.85-16.452,73.64c1.793,2.391,4.783,3.623,8.896,3.623
		c4.328,0,10.259-1.339,15.448-2.81c-0.873,2.475-1.841,5.129-2.834,7.664c-6.05,15.352-6.935,26.173-2.762,42.302
		c-62.927,2.236-63.513,46.858-63.764,66.167c-0.945,73.21-57.738,85.19-88.251,91.611c-13.272,2.774-21.283,4.472-21.283,12.004
		v48.974c0,3.24,2.618,5.847,5.847,5.847h409.391c3.24,0,5.847-2.618,5.847-5.847v-48.974
		C479.541,475.259,469.043,470.07,435.756,454.909z M274.857,34.673c0-12.686,10.319-23.004,23.004-23.004
		s22.98,10.319,22.98,23.004c0,1.172-0.167,2.284-0.323,3.42c-1.375-0.861-2.774-1.53-4.173-1.734c-4.986,0-9.685,4.735-12.71,8.716
		c-4.866,6.325-4.723,9.685-4.197,11.658c0.072,0.251,0.251,0.49,0.347,0.741c-0.645,0.072-1.267,0.203-1.925,0.203
		C285.188,57.666,274.857,47.359,274.857,34.673z"/>
</g>
<g>
</g>
<g>
</g>
<g>
</g>
<g>
</g>
<g>
</g>
<g>
</g>
<g>
</g>
<g>
</g>
<g>
</g>
<g>
</g>
<g>
</g>
<g>
</g>
<g>
</g>
<g>
</g>
<g>
</g>
</svg>
