<?xml version="1.0" encoding="iso-8859-1"?>
<!-- Generator: Adobe Illustrator 19.0.0, SVG Export Plug-In . SVG Version: 6.00 Build 0)  -->
<svg version="1.1" id="Layer_1" xmlns="http://www.w3.org/2000/svg" xmlns:xlink="http://www.w3.org/1999/xlink" x="0px" y="0px"
	 viewBox="0 0 512 512" style="enable-background:new 0 0 512 512;" xml:space="preserve">
<g>
	<g>
		<path d="M509.785,263.294c-2.588-2.715-6.712-3.272-9.927-1.341c-15.193,9.118-32.312,9.407-50.876,0.864
			c-10.547-4.854-18.698-11.327-22.494-14.626v-24.586c29.522-4.606,46.838-15.917,47.737-16.516
			c2.818-1.878,4.151-5.323,3.332-8.608c-0.819-3.286-3.612-5.701-6.981-6.039c-0.801-0.08-79.651-8.571-103.946-62.151v-15.386
			c0-4.427-3.589-8.017-8.017-8.017s-8.017,3.589-8.017,8.017v9.086H161.403v-9.086c0-4.427-3.589-8.017-8.017-8.017
			s-8.017,3.589-8.017,8.017v15.383c-24.237,53.437-103.151,62.071-103.946,62.152c-3.369,0.337-6.163,2.753-6.981,6.039
			c-0.819,3.285,0.514,6.73,3.332,8.608c0.899,0.6,18.215,11.91,47.737,16.515v24.586c-3.802,3.304-11.951,9.775-22.494,14.627
			c-18.565,8.543-35.682,8.254-50.876-0.864c-3.216-1.929-7.339-1.37-9.927,1.341c-2.588,2.714-2.948,6.859-0.868,9.979
			c0.595,0.894,11.465,16.824,32.858,24.779v47.731c0,0.002,0,0.003,0,0.005v43.288h-9.086c-4.427,0-8.017,3.589-8.017,8.017
			c0,4.427,3.589,8.017,8.017,8.017h461.762c4.427,0,8.017-3.589,8.017-8.017c0-4.427-3.589-8.017-8.017-8.017h-9.086V345.79
			c0-0.002,0-0.003,0-0.005v-47.731c21.393-7.955,32.262-23.887,32.858-24.779C512.734,270.153,512.373,266.009,509.785,263.294z
			 M68.866,203.357c6.714-1.772,14.307-4.128,22.239-7.231c32.091-12.558,55.274-31.886,67.395-56.1h195.001
			c12.12,24.214,35.302,43.542,67.395,56.1c7.945,3.109,15.548,5.465,22.269,7.239c-10.6,3.281-24.733,6.139-41.796,6.139H110.63
			C94.319,209.503,80.023,206.761,68.866,203.357z M410.455,225.282v18.426H281.119v-18.171h120.25
			C404.487,225.537,407.511,225.443,410.455,225.282z M265.085,225.537v26.722h-18.171v-26.722H265.085z M230.881,225.537v18.171
			H101.545v-18.426c2.945,0.16,5.968,0.254,9.086,0.254H230.881z M68.409,389.077H50.238v-39.969l9.086-9.086l9.086,9.086V389.077z
			 M68.409,326.434l-3.417-3.417c-3.131-3.131-8.207-3.131-11.337,0l-3.417,3.417v-24.501c2.902,0.355,5.923,0.564,9.086,0.564
			h9.086V326.434z M111.165,389.077H84.442v-39.437l13.361-10.689l13.361,10.689V389.077z M111.165,329.108l-8.353-6.683
			c-2.928-2.342-7.088-2.342-10.016,0l-8.353,6.683v-26.611h26.722V329.108z M162.472,389.077h-35.274v-39l17.637-11.758
			l17.637,11.758V389.077z M162.472,330.808l-13.19-8.794c-2.694-1.796-6.201-1.796-8.893,0l-13.19,8.795v-28.312h35.274V330.808z
			 M213.779,389.077h-35.273v-39l17.637-11.758l17.637,11.758V389.077z M213.779,330.808l-13.19-8.794
			c-2.694-1.796-6.201-1.796-8.893,0l-13.19,8.795v-28.312h35.273V330.808z M282.188,389.077h-18.171v-26.188
			c0-4.427-3.589-8.017-8.017-8.017s-8.017,3.589-8.017,8.017v26.188h-18.171v-39l20.064-13.376h12.247l20.064,13.376V389.077z
			 M282.188,330.808l-13.19-8.794c-1.317-0.878-2.865-1.347-4.447-1.347h-17.102c-1.582,0-3.13,0.468-4.447,1.347l-13.19,8.795
			v-28.312h52.376V330.808z M333.495,389.077h-35.273v-39l17.637-11.758l17.637,11.758V389.077z M333.495,330.808l-13.19-8.794
			c-2.694-1.796-6.201-1.796-8.893,0l-13.19,8.795v-28.312h35.273V330.808z M384.802,389.077h-35.273v-39l17.637-11.758
			l17.637,11.758V389.077z M384.802,330.808l-13.19-8.794c-2.694-1.796-6.201-1.796-8.893,0l-13.19,8.795v-28.312h35.273V330.808z
			 M427.557,389.077h-26.722v-39.437l13.361-10.689l13.361,10.689V389.077z M427.557,329.108l-8.353-6.683
			c-2.928-2.342-7.088-2.342-10.016,0l-8.353,6.683v-26.611h26.722V329.108z M461.762,389.077h-18.171v-39.97l9.086-9.086
			l9.086,9.086V389.077z M461.762,326.434l-3.417-3.417c-3.131-3.131-8.207-3.131-11.337,0l-3.417,3.417v-23.937h9.086
			c3.163,0,6.184-0.21,9.086-0.565V326.434z M452.675,286.464H59.322c-5.342,0-10.202-0.707-14.581-1.868
			c8.328-0.943,16.852-3.42,25.455-7.434c12.633-5.896,22.157-13.597,26.471-17.419h134.213v0.534c0,4.427,3.589,8.017,8.017,8.017
			h34.205c4.427,0,8.017-3.589,8.017-8.017v-0.535h134.213c4.314,3.821,13.838,11.524,26.471,17.419
			c8.591,4.008,17.102,6.485,25.417,7.432C462.847,285.755,458,286.464,452.675,286.464z"/>
	</g>
</g>
<g>
</g>
<g>
</g>
<g>
</g>
<g>
</g>
<g>
</g>
<g>
</g>
<g>
</g>
<g>
</g>
<g>
</g>
<g>
</g>
<g>
</g>
<g>
</g>
<g>
</g>
<g>
</g>
<g>
</g>
</svg>
