<svg width="42.375px" height="42.375px" viewBox="0 -8.95 42.375 42.375" xmlns="http://www.w3.org/2000/svg">
  <g id="Beach_3" transform="translate(-348.725 -188.632)">
    <path id="Path_37" data-name="Path 37" d="M386.3,209c-2.9,1.9-4.5,1.4-6.8.7-.7-.2-1.5-.4-2.3-.6-3.5-.9-4.3-.7-5.7-.2a8.725,8.725,0,0,1-3.1.8,8.5,8.5,0,0,1-4.3-.7,11.285,11.285,0,0,0-4.9-.9,8.465,8.465,0,0,0-4.3,1.7c-1.5,1-2.6,1.7-4.8.9a1.012,1.012,0,0,0-.7,1.9,6.61,6.61,0,0,0,2.6.5,6.869,6.869,0,0,0,4.1-1.6,6.523,6.523,0,0,1,3.3-1.4,8.844,8.844,0,0,1,4.1.8,10.006,10.006,0,0,0,5.2.8,12.6,12.6,0,0,0,3.6-1c.9-.4,1.3-.5,4.5.3.8.2,1.5.4,2.2.6,2.5.7,4.8,1.4,8.5-.9a.984.984,0,0,0,.3-1.4A1.261,1.261,0,0,0,386.3,209Z"/>
    <path id="Path_38" data-name="Path 38" d="M381.7,200a6.121,6.121,0,0,1-2.9-4.1c1.7-.1,3.8,0,4.8.7a1.02,1.02,0,0,1,.5.8,1.063,1.063,0,0,0,1,.9h.1a1.172,1.172,0,0,0,.9-1.1,3.021,3.021,0,0,0-1.3-2.2c-1.5-1.2-4-1.3-5.7-1.2a6.469,6.469,0,0,1,2.5-2.7,2.178,2.178,0,0,1,2.3-.2,1.03,1.03,0,0,0,1-1.8,4.419,4.419,0,0,0-4.3.2,8.8,8.8,0,0,0-3.3,3.6,11.493,11.493,0,0,0-9.1-3.4.9.9,0,0,0-.9,1.1.955.955,0,0,0,1.1.9,9.261,9.261,0,0,1,7,2.2,12.48,12.48,0,0,0-8.4,2.7.992.992,0,1,0,1.3,1.5,10.077,10.077,0,0,1,6.3-2.2,5.463,5.463,0,0,0-2,2.9,4.127,4.127,0,0,0,.8,3.5.909.909,0,0,0,.8.4,1.421,1.421,0,0,0,.6-.2,1.075,1.075,0,0,0,.2-1.4,2.113,2.113,0,0,1-.5-1.8,5.446,5.446,0,0,1,2.5-2.7,8.174,8.174,0,0,0,3.8,5.2c2.3,1.3,8.3,5.6,8.3,8.9a1,1,0,0,0,2,0C391,205.6,382.7,200.6,381.7,200Z"/>
    <path id="Path_39" data-name="Path 39" d="M358.3,205.8s2.9-.6,7.8,1.9a5.138,5.138,0,0,0,3.4,0s3.6-2.7,11.1.3a4.2,4.2,0,0,0,4.5-.9s-4.7-4.1-6.3-5.1l-7.3,3.9a33.357,33.357,0,0,0-12-5.5c-4.1,1-10.3,6.5-10.3,6.5S351.5,209.3,358.3,205.8Z"/>
  </g>
</svg>
