<?xml version="1.0" encoding="iso-8859-1"?>
<!-- Generator: Adobe Illustrator 19.0.0, SVG Export Plug-In . SVG Version: 6.00 Build 0)  -->
<svg version="1.1" id="Layer_1" xmlns="http://www.w3.org/2000/svg" xmlns:xlink="http://www.w3.org/1999/xlink" x="0px" y="0px"
	 viewBox="0 0 512.001 512.001" style="enable-background:new 0 0 512.001 512.001;" xml:space="preserve">
<g>
	<g>
		<path d="M481.755,167.474h-15.646h-19.475v-27.184c0-4.556-3.693-8.248-8.248-8.248h-10.764V104.86
			c0-4.556-3.693-8.248-8.248-8.248h-14.925V39.688c0-4.556-3.693-8.248-8.248-8.248h-63.802L307.853,2.873
			C306.285,1.049,304.001,0,301.596,0h-91.987c-2.447,0-4.768,1.086-6.335,2.965L179.525,31.44h-63.729
			c-4.555,0-8.248,3.692-8.248,8.248v56.923H92.624c-4.555,0-8.248,3.692-8.248,8.248v27.184H73.612
			c-4.555,0-8.248,3.692-8.248,8.248v27.184H45.889H30.244c-4.555,0-8.248,3.692-8.248,8.248s3.693,8.248,8.248,8.248h12.152
			l28.019,28.929c1.554,1.605,3.691,2.51,5.925,2.51h171.412v35.45c-21.14,3.388-37.518,20.441-41.667,37.563h-15.7v-39.824
			c0-4.556-3.693-8.248-8.248-8.248s-8.248,3.692-8.248,8.248v39.824H85.839v-39.824c0-4.556-3.693-8.248-8.248-8.248
			c-4.555,0-8.248,3.692-8.248,8.248v39.824h-10.23c-4.555,0-8.248,3.692-8.248,8.248s3.693,8.248,8.248,8.248h10.23v42.288h-10.23
			c-4.555,0-8.248,3.692-8.248,8.248c0,4.556,3.693,8.248,8.248,8.248h10.23v104.303h-10.23c-4.555,0-8.248,3.692-8.248,8.248
			s3.693,8.248,8.248,8.248h10.23v10.998h-10.23c-4.555,0-8.248,3.692-8.248,8.248c0,4.556,3.693,8.248,8.248,8.248h18.479h104.545
			h31.174c4.555,0,8.248-3.692,8.248-8.248v-207.08c0-13.47,15.598-29.925,33.803-29.925c18.359,0,34.09,16.455,34.09,29.925v207.08
			c0,4.556,3.693,8.248,8.248,8.248h32.163h104.545h18.479c4.555,0,8.248-3.692,8.248-8.248c0-4.556-3.693-8.248-8.248-8.248h-10.23
			v-10.998h10.23c4.555,0,8.248-3.692,8.248-8.248s-3.693-8.248-8.248-8.248h-10.23V363.706h10.23c4.555,0,8.248-3.692,8.248-8.248
			c0-4.556-3.693-8.248-8.248-8.248h-10.23v-42.288h9.106c4.555,0,8.248-3.692,8.248-8.248s-3.693-8.248-8.248-8.248h-9.106v-39.824
			c0-4.556-3.693-8.248-8.248-8.248s-8.248,3.692-8.248,8.248v39.824h-88.048v-39.824c0-4.556-3.693-8.248-8.248-8.248
			c-4.555,0-8.248,3.692-8.248,8.248v39.824h-16.696c-4.09-16.788-20.01-33.499-40.67-37.338v-35.674h170.045
			c2.171,0,4.254-0.856,5.797-2.381l29.408-29.058h12.258c4.555,0,8.248-3.692,8.248-8.248S486.312,167.474,481.755,167.474z
			 M173.888,495.503H85.839v-10.998h88.048V495.503z M173.888,468.008H85.839V363.705h88.048V468.008z M173.888,347.208H85.839
			V304.92h88.048V347.208z M205.061,495.503h-14.677V304.92h14.677V495.503z M338.111,304.92h88.048v42.288h-88.048V304.92z
			 M338.111,363.705h88.048v104.303h-88.048V363.705z M338.111,484.505h88.048v10.998h-88.048V484.505z M305.948,304.92h15.667
			v190.583h-15.667V304.92z M213.47,16.497h84.339l12.839,14.943H201.009L213.47,16.497z M124.046,47.937h59.342h145.223h59.342
			v48.675H124.046V47.937z M100.872,113.108h14.925h280.403h14.925v18.935H100.872V113.108z M81.86,148.54h10.764h326.751h10.764
			v18.935H81.86V148.54z M430.905,198.913H79.833l-14.472-14.942h8.251h364.775h7.639L430.905,198.913z"/>
	</g>
</g>
<g>
	<g>
		<path d="M144.989,318.135H111.72c-4.555,0-8.248,3.692-8.248,8.248s3.693,8.248,8.248,8.248h33.269
			c4.555,0,8.248-3.692,8.248-8.248S149.545,318.135,144.989,318.135z"/>
	</g>
</g>
<g>
	<g>
		<path d="M297.699,64.026h-83.4c-4.555,0-8.248,3.692-8.248,8.248s3.693,8.248,8.248,8.248h83.4c4.555,0,8.248-3.692,8.248-8.248
			C305.948,67.718,302.255,64.026,297.699,64.026z"/>
	</g>
</g>
<g>
	<g>
		<path d="M398.028,318.135h-33.269c-4.555,0-8.248,3.692-8.248,8.248s3.693,8.248,8.248,8.248h33.269
			c4.555,0,8.248-3.692,8.248-8.248S402.583,318.135,398.028,318.135z"/>
	</g>
</g>
<g>
	<g>
		<path d="M128.354,227.703c-13.721,0-24.883,11.162-24.883,24.883c0,13.721,11.162,24.883,24.883,24.883
			s24.883-11.162,24.883-24.883C153.237,238.865,142.075,227.703,128.354,227.703z M128.354,260.972
			c-4.625,0-8.386-3.762-8.386-8.386c0-4.623,3.761-8.386,8.386-8.386s8.386,3.762,8.386,8.386
			C136.74,257.21,132.979,260.972,128.354,260.972z"/>
	</g>
</g>
<g>
	<g>
		<path d="M381.393,227.703c-13.721,0-24.883,11.162-24.883,24.883c0,13.721,11.162,24.883,24.883,24.883
			c13.721,0,24.883-11.162,24.883-24.883C406.276,238.865,395.115,227.703,381.393,227.703z M381.393,260.972
			c-4.625,0-8.386-3.762-8.386-8.386c0-4.623,3.761-8.386,8.386-8.386s8.386,3.762,8.386,8.386S386.018,260.972,381.393,260.972z"/>
	</g>
</g>
<g>
	<g>
		<circle cx="158.04" cy="72.274" r="8.248"/>
	</g>
</g>
<g>
	<g>
		<circle cx="353.803" cy="72.274" r="8.248"/>
	</g>
</g>
<g>
</g>
<g>
</g>
<g>
</g>
<g>
</g>
<g>
</g>
<g>
</g>
<g>
</g>
<g>
</g>
<g>
</g>
<g>
</g>
<g>
</g>
<g>
</g>
<g>
</g>
<g>
</g>
<g>
</g>
</svg>
