<?xml version="1.0" encoding="utf-8"?>
<!-- Uploaded to SVGRepo https://www.svgrepo.com -->
<svg version="1.1" id="Layer_1" xmlns="http://www.w3.org/2000/svg" xmlns:xlink="http://www.w3.org/1999/xlink" x="0px" y="0px"
	 width="179px" height="260px" viewBox="0 0 179 260" enable-background="new 0 0 179 260" xml:space="preserve">
<polygon points="172.72,133.527 173.283,118.744 163.451,94.427 163.162,84.821 154.398,86.362 153.026,79.452 136.558,62.767 
	126.783,82.558 106.607,77.044 102.466,70.905 93.63,60.215 103.453,47.07 116.839,40.69 122.04,24.222 139.182,8.283 129.408,2 
	107.209,11.197 88.959,14.447 82.339,25.353 81.111,34.791 69.578,44.951 77.162,50.103 95.315,48.153 85.468,59.951 76.658,66.138 
	78.799,72.711 59.828,71.82 56.625,77.006 53.351,72.398 31.634,68.473 23.738,76.587 26.434,106.249 33.434,113.913 
	22.389,116.553 21.499,130.951 41.626,141.472 64.065,139.353 61.634,146.913 51.041,146.913 44.444,158.686 37.076,184.231 
	27.735,193.909 28.047,205.345 14.589,203.034 2.069,211.653 20.246,212.785 6.403,229.157 17.598,237.968 26.699,238.161 
	30.118,258 44.395,251.258 47.476,256.772 84.499,240.918 87.499,234.918 95.499,235.918 118.982,222.271 125.049,213.315 
	145.682,207.079 158.828,208.861 169.927,204.431 166.773,196.798 176.93,158.375 "/>
</svg>
