<svg width="64px" height="64px" viewBox="0 0 64 64" xmlns="http://www.w3.org/2000/svg"><title>japan</title><g id="japan"><line x1="46" y1="33" x2="46" y2="27.587" style="fill:none;stroke:#000;stroke-linecap:round;stroke-linejoin:round;stroke-width:2px"/><polyline points="49.678 36 50.884 60.08 46 60.08 46 36" style="fill:none;stroke:#000;stroke-linecap:round;stroke-linejoin:round;stroke-width:2px"/><line x1="49.256" y1="27.587" x2="49.5" y2="32.45" style="fill:none;stroke:#000;stroke-linecap:round;stroke-linejoin:round;stroke-width:2px"/><line x1="20.101" y1="32.45" x2="20.101" y2="27.587" style="fill:none;stroke:#000;stroke-linecap:round;stroke-linejoin:round;stroke-width:2px"/><polyline points="16.214 36.465 14.971 60.08 20.101 60.08 20.101 36.465" style="fill:none;stroke:#000;stroke-linecap:round;stroke-linejoin:round;stroke-width:2px"/><line x1="16.681" y1="27.587" x2="16.425" y2="32.45" style="fill:none;stroke:#000;stroke-linecap:round;stroke-linejoin:round;stroke-width:2px"/><rect x="13" y="33" width="40" height="3" rx="1.5" ry="1.5" style="fill:none;stroke:#000;stroke-linecap:round;stroke-linejoin:round;stroke-width:2px"/><rect x="31" y="28" width="4" height="5" style="fill:none;stroke:#000;stroke-linecap:round;stroke-linejoin:round;stroke-width:2px"/><path d="M57,21.88v4.094a143.181,143.181,0,0,1-48,0V22.307" style="fill:none;stroke:#000;stroke-linecap:round;stroke-linejoin:round;stroke-width:2px"/><path d="M62,20.908a137.544,137.544,0,0,1-58,0V15.616c19.14,6.095,38.492,5.935,58,0Z" style="fill:none;stroke:#000;stroke-linecap:round;stroke-linejoin:round;stroke-width:2px"/><line x1="8.13" y1="60.08" x2="56.014" y2="60.08" style="fill:none;stroke:#000;stroke-linecap:round;stroke-linejoin:round;stroke-width:2px"/></g></svg>