<?xml version="1.0" encoding="iso-8859-1"?>
<!-- Generator: Adobe Illustrator 18.0.0, SVG Export Plug-In . SVG Version: 6.00 Build 0)  -->
<!DOCTYPE svg PUBLIC "-//W3C//DTD SVG 1.1//EN" "http://www.w3.org/Graphics/SVG/1.1/DTD/svg11.dtd">
<svg version="1.1" id="Capa_1" xmlns="http://www.w3.org/2000/svg" xmlns:xlink="http://www.w3.org/1999/xlink" x="0px" y="0px"
	 viewBox="0 0 429.832 429.832" style="enable-background:new 0 0 429.832 429.832;" xml:space="preserve">
<g>
	<path d="M157.75,46.666c0.97,0,1.943-0.351,2.712-1.061c0.441-0.408,10.747-10.126,4.911-22.631
		c-3.689-7.905,1.437-16.857,1.481-16.934c1.128-1.899,0.502-4.353-1.397-5.482c-1.899-1.124-4.354-0.502-5.482,1.398
		c-0.303,0.51-7.349,12.62-1.852,24.4c3.331,7.138-2.794,13.09-3.103,13.383c-1.609,1.5-1.706,4.021-0.211,5.639
		C155.598,46.233,156.672,46.666,157.75,46.666z"/>
	<path d="M194.338,133.074c-1.32,1.41-2.444,3.009-3.331,4.758h-14.924c-1.482,0-2.761,0.815-3.452,2.013
		c-3.458-25.028,2.298-53.36,2.369-53.699c0.165-0.799,0.083-1.63-0.236-2.38l-6.667-15.666c-0.865-2.033-3.213-2.981-5.247-2.114
		c-2.033,0.865-2.979,3.214-2.114,5.247l6.185,14.533c-1.401,7.356-7.697,44.264,1.377,70.858c0.567,1.662,2.121,2.709,3.785,2.709
		c0.428,0,0.864-0.069,1.292-0.215c2.091-0.714,3.207-2.987,2.494-5.078c-1.001-2.934-1.795-6.029-2.416-9.216
		c0.704,0.619,1.618,1.008,2.63,1.008h12.74c-0.032,0.47-0.07,0.939-0.07,1.417c0,2.209,1.791,4,4,4s4-1.791,4-4
		c0-6.886,5.373-12.488,11.981-12.499c0.007,0,0.013,0.002,0.019,0.002c0.007,0,0.013-0.002,0.019-0.002
		c6.608,0.011,11.981,5.613,11.981,12.499c0,0.037,0.001,0.085,0.002,0.122c0.069,2.477-0.545,9.721-4.168,13.447
		c-1.645,1.691-3.772,2.514-6.504,2.514c-2.209,0-4,1.791-4,4s1.791,4,4,4c2.946,0,5.593-0.605,7.932-1.779l7.998,14.189
		c-18.85,26.125-30.572,35.276-33.555,36.602l-0.857,0.38c-9.626,4.268-25.739,11.41-29.043,23.342
		c-1.469,5.305-0.263,10.767,3.586,16.235c0.779,1.108,2.017,1.698,3.274,1.698c0.795,0,1.599-0.236,2.298-0.729
		c1.807-1.271,2.241-3.767,0.97-5.573c-2.438-3.464-3.229-6.57-2.418-9.497c2.294-8.286,16.789-14.711,24.575-18.163l0.863-0.383
		c12.635-5.615,35.711-37.696,38.301-41.336c0.899-1.264,0.987-2.933,0.225-4.283l-10.077-17.879
		c4.694-6.747,4.62-15.943,4.596-16.963c-0.001-0.46-0.04-0.909-0.071-1.361h12.731c2.209,0,4-1.791,4-4s-1.791-4-4-4h-14.916
		c-0.887-1.749-2.011-3.348-3.331-4.757l11.515-11.515c1.562-1.561,1.562-4.095,0-5.656c-1.562-1.562-4.094-1.562-5.657,0
		l-12.471,12.471c-1.211-0.528-2.482-0.937-3.801-1.213v-18c0-2.209-1.791-4-4-4s-4,1.791-4,4v18
		c-1.318,0.275-2.59,0.685-3.801,1.212l-12.47-12.47c-1.563-1.563-4.095-1.563-5.657,0c-1.562,1.562-1.562,4.095,0,5.656
		L194.338,133.074z"/>
	<path d="M156.753,90c0.715,0,1.439-0.192,2.092-0.595c1.882-1.157,2.468-3.621,1.311-5.503l-5.333-8.667
		c-1.157-1.881-3.621-2.468-5.503-1.31c-1.882,1.157-2.468,3.621-1.311,5.503l5.334,8.667C154.098,89.323,155.41,90,156.753,90z"/>
	<path d="M177.749,56.952c-0.026-2.208-1.862-4.013-4.046-3.953l-28.667,0.333c-2.209,0.026-3.979,1.838-3.953,4.047
		c0.025,2.192,1.811,3.953,3.998,3.953c0.016,0,0.032,0,0.047,0l28.667-0.333C176.004,60.972,177.775,59.161,177.749,56.952z"/>
	<path d="M160.41,190.892c0.791,0.949,1.929,1.439,3.075,1.439c0.912,0,1.83-0.31,2.582-0.946c1.702-1.44,1.791-4.052,0.364-5.765
		l-2.853-3.424c9.594-2.492,20.695-10.918,24.944-14.359c1.49-1.206,2.015-3.312,1.119-5.007c-1.222-2.313-4.153-2.831-6.077-1.271
		c-9.597,7.779-20.455,13.528-24.886,13.452c-0.71-0.012-1.373-0.343-1.828-0.888c-0.624-1.273-1.47-5.282,2.29-16.645
		c0.678-2.048-0.235-4.4-2.239-5.195c-2.152-0.854-4.556,0.28-5.279,2.45c-2.857,8.573-5.849,20.358,0.119,25.754L160.41,190.892z"
		/>
	<path d="M183.267,182.698c-8.189,14.488-19.017,24.171-19.166,24.303c-1.655,1.462-1.813,3.988-0.352,5.645
		c0.791,0.896,1.893,1.354,3.001,1.354c0.941,0,1.885-0.33,2.645-1.001c0.483-0.426,11.94-10.626,20.836-26.364
		c1.087-1.923,0.409-4.363-1.514-5.45C186.793,180.095,184.355,180.774,183.267,182.698z"/>
	<path d="M170.748,300c1.576,0,3.07-0.938,3.704-2.486l18-44c0.837-2.045-0.143-4.381-2.188-5.217
		c-2.046-0.837-4.38,0.144-5.217,2.188l-18,44c-0.836,2.045,0.143,4.381,2.188,5.217C169.731,299.904,170.243,300,170.748,300z"/>
	<path d="M232.808,230.249c-2.07-0.765-4.373,0.285-5.142,2.357c-0.173,0.466-17.522,47.152-34.646,91.278
		c-4.965,12.796-8.047,15.8-9.014,16.472c-1.798-1.866-3.928-10.091-4.604-18.028c-0.187-2.201-2.116-3.828-4.324-3.647
		c-2.201,0.188-3.833,2.121-3.648,4.322c0.481,5.692,1.661,13.893,4.54,19.449l-7.801,37.056c-0.455,2.162,0.928,4.283,3.09,4.738
		c0.278,0.059,0.555,0.087,0.828,0.087c1.852,0,3.514-1.293,3.91-3.177l6.887-32.713c0.002,0,0.004,0.001,0.007,0.001
		c0.36,0.053,0.717,0.078,1.072,0.078c5.647,0,10.651-6.63,16.516-21.743c17.146-44.183,34.514-90.921,34.687-91.388
		C235.935,233.321,234.879,231.018,232.808,230.249z"/>
	<path d="M288.605,216.267c-0.307-1.11-1.077-2.034-2.114-2.536l-20.667-10c-1.844-0.893-4.063-0.248-5.142,1.493l-6.015,9.701
		c-2.934-3.329-7.814-12.018-11.282-19.592c-0.92-2.008-3.295-2.891-5.302-1.972c-2.009,0.919-2.892,3.293-1.973,5.301
		c2.025,4.427,8.581,18.131,14.257,23.198l-6.219,10.03c-0.427,0.688-0.635,1.49-0.596,2.3l4.417,91.606l-39.443,23.602
		c-1.896,1.135-2.513,3.591-1.379,5.486c0.749,1.253,2.076,1.947,3.436,1.947c0.699,0,1.407-0.184,2.05-0.568l41.5-24.833
		c1.267-0.758,2.013-2.151,1.941-3.625l-2.789-57.844c1.105-0.151,2.142-0.761,2.803-1.767l6.347-9.653
		c0.064,1.181,0.63,2.322,1.67,3.057c0.701,0.495,1.506,0.732,2.303,0.732c1.256,0,2.492-0.59,3.271-1.693l12-17
		c1.274-1.805,0.843-4.301-0.961-5.574c-1.587-1.12-3.708-0.919-5.063,0.372l12.432-18.907
		C288.724,218.567,288.911,217.379,288.605,216.267z M252.746,258.723l-1.142-23.674l13.979-22.547l13.317,6.444L252.746,258.723z"
		/>
	<path d="M171.086,404.332c0.821,0,1.65-0.252,2.363-0.775l47-34.5c1.781-1.308,2.165-3.81,0.858-5.592
		c-1.307-1.779-3.81-2.164-5.591-0.857l-47,34.5c-1.781,1.308-2.165,3.81-0.858,5.592
		C168.642,403.767,169.856,404.332,171.086,404.332z"/>
	<path d="M254.644,378.921c-0.677-19.452-0.07-37.771-0.064-37.953c0.075-2.208-1.654-4.059-3.862-4.134
		c-2.229-0.053-4.059,1.653-4.133,3.862c-0.006,0.185-0.622,18.74,0.062,38.462c0.827,23.823,2.984,35.996,5.282,42.584
		c-24.229-0.251-67.999-0.082-89.206,0.023l0.751-0.561c1.771-1.321,2.135-3.827,0.814-5.598c-1.321-1.771-3.828-2.136-5.598-0.815
		l-10.5,7.833c-1.385,1.033-1.95,2.84-1.401,4.479c0.547,1.63,2.074,2.728,3.792,2.728c0.009,0,0.018,0,0.026,0
		c0.789-0.004,79.284-0.493,107.906-0.001c0.023,0.001,0.046,0.001,0.069,0.001c1.57,0,2.997-0.92,3.645-2.355
		c0.657-1.456,0.385-3.163-0.691-4.343C259.863,421.302,255.841,413.324,254.644,378.921z"/>
</g>
<g>
</g>
<g>
</g>
<g>
</g>
<g>
</g>
<g>
</g>
<g>
</g>
<g>
</g>
<g>
</g>
<g>
</g>
<g>
</g>
<g>
</g>
<g>
</g>
<g>
</g>
<g>
</g>
<g>
</g>
</svg>
