<svg width="64px" height="64px" viewBox="0 0 64 64" xmlns="http://www.w3.org/2000/svg"><title>philippines</title><g id="philippines"><line x1="53.925" y1="42.5" x2="53.925" y2="46.2" style="fill:none;stroke:#000;stroke-linecap:round;stroke-linejoin:round;stroke-width:2px"/><rect x="17.075" y="45.85" width="31.825" height="13.15" style="fill:none;stroke:#000;stroke-linecap:round;stroke-linejoin:round;stroke-width:2px"/><polyline points="48.9 50.875 58.95 50.875 58.95 59" style="fill:none;stroke:#000;stroke-linecap:round;stroke-linejoin:round;stroke-width:2px"/><line x1="7.025" y1="59" x2="7.025" y2="51.875" style="fill:none;stroke:#000;stroke-linecap:round;stroke-linejoin:round;stroke-width:2px"/><line x1="5" y1="51" x2="17" y2="51" style="fill:none;stroke:#000;stroke-linecap:round;stroke-linejoin:round;stroke-width:2px"/><line x1="48.9" y1="50.875" x2="60.625" y2="50.875" style="fill:none;stroke:#000;stroke-linecap:round;stroke-linejoin:round;stroke-width:2px"/><rect x="49" y="47" width="8" height="4" style="fill:none;stroke:#000;stroke-linecap:round;stroke-linejoin:round;stroke-width:2px"/><rect x="9" y="16" width="8.075" height="35" style="fill:none;stroke:#000;stroke-linecap:round;stroke-linejoin:round;stroke-width:2px"/><line x1="8" y1="24" x2="19" y2="24" style="fill:none;stroke:#000;stroke-linecap:round;stroke-linejoin:round;stroke-width:2px"/><polyline points="40.317 37 47 37 47 45.85" style="fill:none;stroke:#000;stroke-linecap:round;stroke-linejoin:round;stroke-width:2px"/><polyline points="21 45.85 21 37 26.698 37" style="fill:none;stroke:#000;stroke-linecap:round;stroke-linejoin:round;stroke-width:2px"/><line x1="47" y1="35" x2="47" y2="45" style="fill:none;stroke:#000;stroke-linecap:round;stroke-linejoin:round;stroke-width:2px"/><line x1="21" y1="35" x2="21" y2="45" style="fill:none;stroke:#000;stroke-linecap:round;stroke-linejoin:round;stroke-width:2px"/><polygon points="55.6 43 47 43 47 39 52.16 39 55.6 43" style="fill:none;stroke:#000;stroke-linecap:round;stroke-linejoin:round;stroke-width:2px"/><polyline points="27 45.359 27 27 40 27 40 45.453" style="fill:none;stroke:#000;stroke-linecap:round;stroke-linejoin:round;stroke-width:2px"/><path d="M17,16V14.641A6.284,6.284,0,0,0,13.029,9h0l-.021.009A6.29,6.29,0,0,0,9,14.666V16" style="fill:none;stroke:#000;stroke-linecap:round;stroke-linejoin:round;stroke-width:2px"/><line x1="13" y1="27" x2="13" y2="29" style="fill:none;stroke:#000;stroke-linecap:round;stroke-linejoin:round;stroke-width:2px"/><line x1="13" y1="19" x2="13" y2="21" style="fill:none;stroke:#000;stroke-linecap:round;stroke-linejoin:round;stroke-width:2px"/><line x1="13" y1="32" x2="13" y2="34" style="fill:none;stroke:#000;stroke-linecap:round;stroke-linejoin:round;stroke-width:2px"/><line x1="13" y1="37" x2="13" y2="39" style="fill:none;stroke:#000;stroke-linecap:round;stroke-linejoin:round;stroke-width:2px"/><line x1="13" y1="42" x2="13" y2="44" style="fill:none;stroke:#000;stroke-linecap:round;stroke-linejoin:round;stroke-width:2px"/><path d="M27.163,45.453c.351-2.5,3.082-4.453,6.4-4.453s6.053,1.951,6.4,4.458" style="fill:none;stroke:#000;stroke-linecap:round;stroke-linejoin:round;stroke-width:2px"/><polyline points="27 37 31 37 31 35 36 35 36 37 39 37" style="fill:none;stroke:#000;stroke-linecap:round;stroke-linejoin:round;stroke-width:2px"/><line x1="30" y1="30" x2="30" y2="31" style="fill:none;stroke:#000;stroke-linecap:round;stroke-linejoin:round;stroke-width:2px"/><line x1="37" y1="30" x2="37" y2="31" style="fill:none;stroke:#000;stroke-linecap:round;stroke-linejoin:round;stroke-width:2px"/><line x1="34" y1="30" x2="34" y2="31" style="fill:none;stroke:#000;stroke-linecap:round;stroke-linejoin:round;stroke-width:2px"/><path d="M27,27h0a9.253,9.253,0,0,1,4.612-7.939L35,19a8.248,8.248,0,0,1,5,8Z" style="fill:none;stroke:#000;stroke-linecap:round;stroke-linejoin:round;stroke-width:2px"/><line x1="12" y1="54" x2="12" y2="57" style="fill:none;stroke:#000;stroke-linecap:round;stroke-linejoin:round;stroke-width:2px"/><line x1="54" y1="54" x2="54" y2="57" style="fill:none;stroke:#000;stroke-linecap:round;stroke-linejoin:round;stroke-width:2px"/><path d="M33,49h0a4,4,0,0,1,4,4v6a0,0,0,0,1,0,0H29a0,0,0,0,1,0,0V53A4,4,0,0,1,33,49Z" style="fill:none;stroke:#000;stroke-linecap:round;stroke-linejoin:round;stroke-width:2px"/><path d="M41,51h0a4,4,0,0,1,4,4v4a0,0,0,0,1,0,0H37a0,0,0,0,1,0,0V55A4,4,0,0,1,41,51Z" style="fill:none;stroke:#000;stroke-linecap:round;stroke-linejoin:round;stroke-width:2px"/><path d="M25,51h0a4,4,0,0,1,4,4v4a0,0,0,0,1,0,0H21a0,0,0,0,1,0,0V55A4,4,0,0,1,25,51Z" style="fill:none;stroke:#000;stroke-linecap:round;stroke-linejoin:round;stroke-width:2px"/><line x1="3" y1="59" x2="62" y2="59" style="fill:none;stroke:#000;stroke-linecap:round;stroke-linejoin:round;stroke-width:2px"/><path d="M35,19V13.5A1.5,1.5,0,0,0,33.5,12h0A1.5,1.5,0,0,0,32,13.5V19" style="fill:none;stroke:#000;stroke-linecap:round;stroke-linejoin:round;stroke-width:2px"/><line x1="32" y1="16" x2="35" y2="16" style="fill:none;stroke:#000;stroke-linecap:round;stroke-linejoin:round;stroke-width:2px"/><line x1="33.083" y1="58.833" x2="33.083" y2="55" style="fill:none;stroke:#000;stroke-linecap:round;stroke-linejoin:round;stroke-width:2px"/><line x1="41.083" y1="58.833" x2="41.083" y2="55" style="fill:none;stroke:#000;stroke-linecap:round;stroke-linejoin:round;stroke-width:2px"/><line x1="25.083" y1="58.833" x2="25.083" y2="55" style="fill:none;stroke:#000;stroke-linecap:round;stroke-linejoin:round;stroke-width:2px"/><line x1="9" y1="48" x2="17" y2="48" style="fill:none;stroke:#000;stroke-linecap:round;stroke-linejoin:round;stroke-width:2px"/><line x1="18" y1="42" x2="20" y2="42" style="fill:none;stroke:#000;stroke-linecap:round;stroke-linejoin:round;stroke-width:2px"/><line x1="22" y1="41" x2="27" y2="41" style="fill:none;stroke:#000;stroke-linecap:round;stroke-linejoin:round;stroke-width:2px"/><line x1="41" y1="41" x2="46" y2="41" style="fill:none;stroke:#000;stroke-linecap:round;stroke-linejoin:round;stroke-width:2px"/><line x1="18" y1="39" x2="20" y2="39" style="fill:none;stroke:#000;stroke-linecap:round;stroke-linejoin:round;stroke-width:2px"/><line x1="48" y1="55" x2="46" y2="55" style="fill:none;stroke:#000;stroke-linecap:round;stroke-linejoin:round;stroke-width:2px"/><line x1="18" y1="55" x2="21" y2="55" style="fill:none;stroke:#000;stroke-linecap:round;stroke-linejoin:round;stroke-width:2px"/></g></svg>