<?xml version="1.0" encoding="iso-8859-1"?>
<!-- Generator: Adobe Illustrator 19.0.0, SVG Export Plug-In . SVG Version: 6.00 Build 0)  -->
<svg version="1.1" id="Layer_1" xmlns="http://www.w3.org/2000/svg" xmlns:xlink="http://www.w3.org/1999/xlink" x="0px" y="0px"
	 viewBox="0 0 512.012 512.012" style="enable-background:new 0 0 512.012 512.012;" xml:space="preserve">
<g>
	<g>
		<g>
			<path d="M85.344,383.951c0-5.888-4.779-10.667-10.667-10.667H27.467L176.245,57.231l16.149,101.611
				c0.213,1.387,0.725,2.645,1.408,3.797c0.235,0.405,0.597,0.704,0.896,1.088c0.512,0.64,1.003,1.28,1.664,1.792
				c0.405,0.32,0.896,0.533,1.365,0.789c0.661,0.384,1.323,0.747,2.091,0.981c0.512,0.171,1.045,0.213,1.579,0.299
				c0.512,0.064,0.981,0.256,1.493,0.256c0.491,0,1.003-0.043,1.515-0.107c0.064,0,0.128,0.021,0.192,0
				c5.803-0.939,9.771-6.4,8.853-12.203l-13.717-86.421l24.917,38.251c3.221,4.928,9.792,6.315,14.763,3.115
				c4.928-3.2,6.336-9.813,3.115-14.741L190.261,15.46c-0.32-0.512-0.811-0.853-1.216-1.301c-0.192-0.213-0.363-0.427-0.576-0.619
				c-1.493-1.387-3.307-2.261-5.269-2.624c-0.149-0.021-0.213-0.149-0.363-0.171c-0.128,0-0.235,0.085-0.363,0.064
				c-1.664-0.171-3.349-0.107-4.992,0.512c-0.341,0.149-0.597,0.405-0.939,0.576c-0.213,0.107-0.384,0.235-0.597,0.363
				c-1.792,1.067-3.2,2.539-4.096,4.331c-0.043,0.085-0.128,0.107-0.171,0.171L1.013,379.428c-1.557,3.307-1.301,7.147,0.64,10.24
				c1.963,3.072,5.355,4.949,9.024,4.949h64C80.565,394.618,85.344,389.839,85.344,383.951z"/>
			<path d="M508.107,311.695l-234.667-192c-0.043-0.043-0.128-0.021-0.171-0.064c-1.643-1.301-3.627-2.155-5.803-2.325
				c-0.085,0-0.149,0.064-0.235,0.043c-0.448-0.021-0.832,0.235-1.28,0.277c-1.835,0.107-3.541,0.512-5.013,1.493
				c-0.107,0.085-0.256,0.043-0.384,0.107c-0.448,0.299-0.533,0.875-0.896,1.237c-0.832,0.811-1.835,1.451-2.411,2.496l-192,362.667
				c-1.749,3.307-1.643,7.296,0.299,10.496c1.899,3.2,5.397,5.163,9.131,5.163h320c1.771,0,3.477-0.469,5.013-1.301
				c0.427-0.235,0.683-0.64,1.088-0.939c0.939-0.683,1.941-1.301,2.624-2.261c0.085-0.107,0.064-0.256,0.149-0.363
				c0.043-0.064,0.128-0.107,0.171-0.171l106.667-170.667C513.227,321.039,512.267,315.087,508.107,311.695z M92.405,479.951
				l172.309-325.483l114.859,325.483H92.405z M397.365,466.191L289.419,160.378l197.888,161.899L397.365,466.191z"/>
		</g>
	</g>
</g>
<g>
</g>
<g>
</g>
<g>
</g>
<g>
</g>
<g>
</g>
<g>
</g>
<g>
</g>
<g>
</g>
<g>
</g>
<g>
</g>
<g>
</g>
<g>
</g>
<g>
</g>
<g>
</g>
<g>
</g>
</svg>
