<?xml version="1.0" encoding="iso-8859-1"?>
<!-- Generator: Adobe Illustrator 19.0.0, SVG Export Plug-In . SVG Version: 6.00 Build 0)  -->
<svg version="1.1" id="Layer_1" xmlns="http://www.w3.org/2000/svg" xmlns:xlink="http://www.w3.org/1999/xlink" x="0px" y="0px"
	 viewBox="0 0 300 300" style="enable-background:new 0 0 300 300;" xml:space="preserve">
<g>
	<g>
		<g>
			<path d="M275.231,290.323c-3.435-16.36-23.434-33.871-47.811-33.871c-10.703,0-22.181,1.79-31.858,3.852
				c12.281-15.063,17.342-36.44,17.342-57.077c0-20.124-3.45-35.545-6.334-44.952l20.39,2.584l-5.061-8.502
				c-0.14-0.232-13.834-23.666-13.834-60.421c0-32.134,0-91.935-53.226-91.935c-1.031,0-24.019,0.169-35.86,13.989
				c-1.776-0.256-4.069-0.387-6.556-0.029c-6.566,0.939-11.623,4.863-14.458,11.139c-5.976,2.061-20.545,8.598-20.545,23.289
				c0,9.648,4.021,15.706,9.082,19.355H0v9.677h43.287C23.231,87.464,0,107.26,0,145.161h9.677
				c0-56.521,58.137-66.939,63.285-67.742h18.895c0.503,2.627,1.476,5.366,3.382,7.81c1.906,2.444,4.452,4.156,7.495,5.269
				c-5.419,10.031-1.892,19.848,2.463,25.877c-0.315,0.798-0.605,1.616-0.885,2.463c-4.926-5.927-12.484-12.387-22.055-12.387
				c-10.65,0-14.516,8.681-14.516,14.516v2.419l1.935,1.452c25.156,18.866,21.373,35.371,16.582,56.26
				c-1.965,8.579-4.002,17.453-4.002,26.966c0,22.268,5.506,39.711,15.919,51.948c-9.373-1.935-20.245-3.561-30.435-3.561
				c-24.373,0-44.376,17.511-47.811,33.871H0V300h300v-9.677H275.231z M154.839,9.677c36.145,0,43.548,32.884,43.548,82.258
				c0,26.574,6.571,46.471,11.081,56.99l-6.629-0.827c-0.029-0.063-0.077-0.165-0.087-0.194l-0.3,0.145l-22.098-2.763
				c-1.553-0.973-10.998-8.245-10.998-38.835c0-5.25,1.708-12.881,3.682-21.711c2.811-12.571,5.995-26.811,5.995-41.192h-9.677
				c0,13.311-3.063,27-5.763,39.077c-2.1,9.397-3.915,17.506-3.915,23.826c0,1.955,0.068,3.755,0.135,5.555l-19.858,3.31
				c0.392-7.355,2.865-15.973,9.247-25.539c14.405-21.605,17.656-44.487,8.71-61.215c-4.152-7.756-10.529-13.331-18.276-16.335
				C147.359,9.764,154.718,9.677,154.839,9.677z M137.283,142.373l-23.085,6.595c-9.503-27.445,8.976-42.919,9.803-43.597
				l-6.063-7.548c-0.097,0.077-3.624,3.01-7.35,8.4c-1.553-4.161-1.732-9.851,4.123-15.706c2.1-2.1,4.268-4.195,6.455-6.31
				c12.198-11.782,25.616-24.803,31.098-42.784c2.734,12.518-1.069,27.919-11.115,42.987
				C123.425,110.994,131.36,132.386,137.283,142.373z M102.892,79.293c-1.452-1.839-1.824-4.49-1.805-6.735
				c0.169,0.01,0.358,0.024,0.527,0.024h9.677v-9.677h-9.648c-2.429-0.029-14.545-0.856-14.545-14.516
				c-0.001-10.531,15.546-14.624,15.686-14.663l2.579-0.644l0.837-2.521c3.024-9.073,10.921-7.345,13.234-6.619l3.508,1.171
				l2.052-3.077c0.629-0.944,1.365-1.795,2.144-2.603c7.094,0.31,13.321,3.005,17.903,7.737
				c-1.268,21.692-16.147,36.126-30.595,50.076c-1.694,1.64-3.348,3.261-4.998,4.887C106.419,81.856,104.183,80.932,102.892,79.293z
				 M91.935,208.064c0-8.419,1.911-16.747,3.755-24.803c4.786-20.835,9.716-42.363-17.903-64.384c0.547-1.5,1.805-2.748,4.471-2.748
				c9.111,0,17.023,11.318,19.631,16.234c-0.227,7.156,1.069,15.31,4.96,24.377l1.679,3.919l17.985-5.148
				c5.492,2.54,19.253,10.635,22.698,29.148c-9.634,2.235-28.244,10.689-28.244,42.76v4.839h4.839
				c0.339,0,33.871-0.445,33.871-38.71c0-22.035-11.381-34.824-20.642-41.618l15.039-4.302l-5.385-5.782
				c-0.435-0.465-5.952-6.634-8.003-16.839l19.882-3.315c3.348,27.416,15.368,32.376,16.935,32.894l18.431,2.337
				c2.69,7.592,7.292,23.821,7.292,46.302c0,15.89-3.837,67.742-53.226,67.742C111.469,270.966,91.935,249.802,91.935,208.064z
				 M149.995,194.279c-0.281,20.153-12.029,25.96-19.127,27.629C132.556,201.958,143.4,196.034,149.995,194.279z M29.908,290.323
				c3.668-10.965,18.687-24.194,37.834-24.194c23.1,0,51.411,9.339,51.697,9.431l0.102-0.305c8.734,3.527,18.885,5.39,30.46,5.39
				c9.915,0,18.387-1.916,25.703-5.153l0.024,0.068c0.281-0.092,28.592-9.431,51.692-9.431c19.147,0,34.166,13.229,37.834,24.194
				H29.908z"/>
			<rect x="179.032" y="164.516" width="9.677" height="9.677"/>
			<rect x="188.71" y="179.031" width="9.677" height="9.677"/>
			<rect x="179.032" y="193.547" width="9.677" height="9.677"/>
			<rect x="169.355" y="212.903" width="9.677" height="9.677"/>
			<rect x="188.71" y="212.903" width="9.677" height="9.677"/>
			<rect x="179.032" y="232.258" width="9.677" height="9.677"/>
			<rect x="159.677" y="241.935" width="9.677" height="9.677"/>
			<rect x="140.323" y="251.612" width="9.677" height="9.677"/>
		</g>
	</g>
</g>
<g>
</g>
<g>
</g>
<g>
</g>
<g>
</g>
<g>
</g>
<g>
</g>
<g>
</g>
<g>
</g>
<g>
</g>
<g>
</g>
<g>
</g>
<g>
</g>
<g>
</g>
<g>
</g>
<g>
</g>
</svg>
