<?xml version="1.0" encoding="iso-8859-1"?>
<!-- Generator: Adobe Illustrator 18.0.0, SVG Export Plug-In . SVG Version: 6.00 Build 0)  -->
<!DOCTYPE svg PUBLIC "-//W3C//DTD SVG 1.1//EN" "http://www.w3.org/Graphics/SVG/1.1/DTD/svg11.dtd">
<svg version="1.1" id="Capa_1" xmlns="http://www.w3.org/2000/svg" xmlns:xlink="http://www.w3.org/1999/xlink" x="0px" y="0px"
	 viewBox="0 0 425.333 425.333" style="enable-background:new 0 0 425.333 425.333;" xml:space="preserve">
<g>
	<path d="M425.158,223.664c-0.443-1.447-1.666-2.521-3.159-2.774c-6.753-1.14-13.747-1.718-20.786-1.718
		c-28.988,0-51.514,9.54-57.919,12.561c-3.306-1.513-10.782-4.758-19.499-7.431c7.975-14.094,13.947-24.45,16.953-29.393
		c0.67-1.101,0.768-2.459,0.263-3.645c-0.506-1.187-1.552-2.057-2.811-2.337c-29.641-6.607-62.704-2.198-98.27,13.1
		c-0.001,0.001-0.002,0.002-0.004,0.002c-1.604,0.687-3.243,1.41-4.952,2.189c-4.799-9.229-15.037-26.471-31.715-43.086
		c-24.053-23.96-52.568-38.182-84.756-42.269c-1.362-0.172-2.704,0.358-3.577,1.408c-0.874,1.049-1.152,2.472-0.738,3.772
		c1.506,4.731,5.13,22.596,9.309,44.398c-9.672-3.878-28.036-9.811-50.747-10.27c-1.201-0.04-2.267,0.454-3.043,1.311
		c-0.777,0.856-1.146,2.007-1.011,3.155c0.638,5.428,1.818,14.38,3.51,26.642c-11.546-2.964-37.677-8.249-61.724-3.021
		c-1.194,0.26-2.204,1.052-2.742,2.148c-0.538,1.098-0.545,2.381-0.019,3.483l26.97,56.509l-4.72,6.436h-5.306c-2.209,0-4,1.791-4,4
		v16H4c-2.209,0-4,1.791-4,4v23.667c0,2.209,1.791,4,4,4h407.591c1.618,0,3.076-0.975,3.695-2.47
		c0.619-1.494,0.277-3.215-0.867-4.358l-21.667-21.667c-0.75-0.75-1.767-1.172-2.828-1.172h-22.757
		c14.229-11.752,42.453-35.311,56.926-49.104C425.189,226.685,425.601,225.112,425.158,223.664z M20.667,298.501H8v-15.667h12.667
		V298.501z M339.984,239.022l8.455,29.813h-25.537c-2.758-7.053-10.661-27.194-16.037-40.227
		C320.103,230.359,335.14,236.82,339.984,239.022z M314.31,268.834h-13.839c1.545-3.583,4.229-9.595,7.508-16.057
		C310.453,259.012,312.738,264.824,314.31,268.834z M330.992,195.658c-4.225,7.197-10.146,17.601-15.168,26.488
		c-5.111-1.184-10.332-1.979-15.157-1.979c-1.345,0-2.6,0.676-3.34,1.798c-0.739,1.123-0.866,2.542-0.337,3.778
		c1.843,4.3,4.417,10.61,7.091,17.268c-6.395,11.672-11.345,23.508-12.297,25.823h-5.106l-39.232-61.28
		C277.583,195.297,305.636,191.303,330.992,195.658z M240.36,211.324l36.819,57.511h-50.931
		C226.999,258.902,229.898,232.834,240.36,211.324z M218.213,268.834h-62.304c11.884-11.407,39.51-35.921,73.828-53.23
		C221.191,237.012,218.833,259.878,218.213,268.834z M123.371,127.672c27.997,4.772,52.951,17.918,74.242,39.128
		c15.79,15.73,25.515,32.015,30.129,40.85c-37.477,18.531-66.77,45.006-78.491,56.45
		C144.564,237.93,129.301,153.289,123.371,127.672z M125.306,177.94c0.669,3.532,1.345,7.127,2.025,10.752
		c-5.798,7.308-28.22,36.681-37.791,65.442c-1.548-10.65-11.511-81.314-12.328-87.787
		C101.139,167.687,119.565,175.302,125.306,177.94z M81.946,257.501h-1.338L44.743,246.33c3.614-7.809,13.315-25.561,30.485-35.513
		C77.924,229.832,80.633,248.483,81.946,257.501z M17.191,193.156c23.442-3.56,48.526,2.598,56.214,4.742
		c0.208,1.483,0.418,2.977,0.631,4.481c-18.524,9.509-29.587,26.745-34.807,36.951L17.191,193.156z M126,298.501H28.667v-35.667H32
		c1.274,0,2.472-0.607,3.226-1.635l5.644-7.697l37.94,11.818c0.385,0.12,0.786,0.181,1.189,0.181h27.671L126,275.239V298.501z
		 M110.544,257.969c-0.578-0.308-1.223-0.468-1.877-0.468h-11.8c7.336-22.64,23.786-46.566,32.44-58.207
		c5.49,29.565,10.748,58.838,12.662,69.54h-10.974L110.544,257.969z M388.267,284.834l13.667,13.667H257v-6c0-2.209-1.791-4-4-4
		s-4,1.791-4,4v6h-12v-6c0-2.209-1.791-4-4-4s-4,1.791-4,4v6h-12v-6c0-2.209-1.791-4-4-4s-4,1.791-4,4v6h-12v-6c0-2.209-1.791-4-4-4
		s-4,1.791-4,4v6h-12v-6c0-2.209-1.791-4-4-4s-4,1.791-4,4v6h-35v-21.667h211.776l7.509,6.938c0.739,0.684,1.709,1.063,2.715,1.063
		H388.267z M358.184,273.872l-10.077-35.534c7.33-3.254,27.759-11.165,53.106-11.165c3.746,0,7.477,0.174,11.158,0.52
		C395.436,243.073,368.893,265.063,358.184,273.872z"/>
	<path d="M166.024,164.388c16.966,12.211,29.249,26.759,37.159,37.973c1.251,1.773,3.687,2.217,5.489,1.007
		c1.865-1.253,2.336-3.79,1.041-5.626c-8.287-11.745-21.164-26.989-38.985-39.823c-1.834-1.32-4.399-0.877-5.668,0.992l0,0.001
		C163.849,160.697,164.273,163.127,166.024,164.388z"/>
	<path d="M150.997,150.507L150.997,150.507c1.038-1.994,0.238-4.462-1.784-5.441c-0.263-0.128-0.526-0.254-0.789-0.38
		c-2.028-0.967-4.456-0.049-5.363,2.007l-0.001,0.001c-0.876,1.985-0.003,4.296,1.956,5.23c0.225,0.107,0.449,0.215,0.673,0.323
		C147.644,153.194,149.994,152.433,150.997,150.507z"/>
</g>
<g>
</g>
<g>
</g>
<g>
</g>
<g>
</g>
<g>
</g>
<g>
</g>
<g>
</g>
<g>
</g>
<g>
</g>
<g>
</g>
<g>
</g>
<g>
</g>
<g>
</g>
<g>
</g>
<g>
</g>
</svg>
