<?xml version="1.0" encoding="iso-8859-1"?>
<!-- Generator: Adobe Illustrator 19.0.0, SVG Export Plug-In . SVG Version: 6.00 Build 0)  -->
<svg version="1.1" id="Layer_1" xmlns="http://www.w3.org/2000/svg" xmlns:xlink="http://www.w3.org/1999/xlink" x="0px" y="0px"
	 viewBox="0 0 511.999 511.999" style="enable-background:new 0 0 511.999 511.999;" xml:space="preserve">
<g>
	<g>
		<path d="M255.999,0C114.841,0,0,114.842,0,255.999s114.841,255.999,255.999,255.999s255.999-114.842,255.999-255.999
			S397.158,0,255.999,0z M255.999,499.974c-73.239,0-139.037-32.444-183.795-83.708h367.591
			C395.037,467.529,329.238,499.974,255.999,499.974z M72.016,404.239l5.765-21.646H437.83l5.765,21.646H72.016z M253.546,265.823
			c0.749,0.336,7.77,0.336,8.519,0c16.57-2.884,29.21-17.371,29.21-34.753v-65.238l37.48,11.427
			c10.06,3.067,17.068,11.825,17.857,22.311l8.814,117.282h-27.206c0.105-8.662-3.257-15.508-7.2-20.279l14.825-6.713
			c3.026-1.37,4.367-4.933,2.997-7.957c-1.37-3.026-4.934-4.369-7.957-2.997l-5.136,2.326v-41.745c0-3.32-2.693-6.013-6.013-6.013
			c-3.32,0-6.013,2.693-6.013,6.013v47.19l-24.146,10.934h-23.368h-40.174l-24.146-10.934v-47.19c0-3.32-2.693-6.013-6.013-6.013
			c-3.32,0-6.013,2.693-6.013,6.013v41.745l-5.136-2.326c-3.026-1.37-6.588-0.028-7.957,2.997c-1.37,3.024-0.028,6.588,2.997,7.957
			l15.512,7.024c-3.834,4.755-7.049,11.492-6.946,19.967h-28.146l8.814-117.282c0.788-10.486,7.797-19.245,17.857-22.311
			l37.48-11.427v65.238C224.336,248.452,236.975,262.939,253.546,265.823z M236.361,231.07v-5.354l21.447-9.694l21.442,9.693v5.355
			c0,12.212-9.465,22.255-21.444,23.181C245.827,253.325,236.361,243.282,236.361,231.07z M328.766,370.567h-22.682
			c19.633-13.351,29.643-33.146,33.25-41.69h58.1C388.872,341.691,368.202,365.03,328.766,370.567z M411.489,328.878h1.448
			c11.494,0,20.844,9.35,20.844,20.844c0,11.494-9.35,20.845-20.844,20.845h-44.714
			C394.031,357.072,407.031,337.024,411.489,328.878z M290.473,328.878c0.004,0,0.006,0,0.01,0c0.002,0,0.006,0,0.008,0h35.565
			c-6.299,12.558-21.764,36.193-50.782,41.69h-34.936c-28.888-5.473-44.412-29.119-50.754-41.69H290.473z M200.346,316.853
			c-0.18-7.607,3.778-12.383,6.476-14.74l15.435,6.989c0.779,0.352,1.625,0.535,2.481,0.535h41.472
			c5.149,0,9.928,2.558,12.786,6.841l0.249,0.374H200.346z M288.878,309.638h1.997c0.855,0,1.702-0.183,2.481-0.535l16.048-7.268
			c2.69,2.248,6.989,7.096,6.803,15.019h-22.511L289,309.808C288.962,309.749,288.917,309.695,288.878,309.638z M176.277,328.879
			c3.607,8.543,13.617,28.339,33.25,41.689h-22.682c-39.437-5.537-60.108-28.876-68.669-41.689H176.277z M147.387,370.568h-44.713
			c-11.493-0.001-20.844-9.351-20.844-20.845s9.351-20.844,20.844-20.844h1.447C108.579,337.025,121.579,357.073,147.387,370.568z
			 M448.261,375.032c-0.701-2.632-3.086-4.465-5.811-4.465h-4.119c4.668-5.676,7.474-12.938,7.474-20.844
			c0-18.124-14.746-32.87-32.87-32.87h-45.452l-8.881-118.184c-1.163-15.47-11.503-28.389-26.342-32.913l-45.247-13.795
			c-1.822-0.556-3.8-0.215-5.332,0.92c-1.531,1.134-2.434,2.927-2.434,4.832v54.805l-15.429-6.975v-12.558
			c0-3.32-2.693-6.013-6.013-6.013c-3.32,0-6.013,2.693-6.013,6.013v12.558l-15.433,6.976v-54.806c0-1.905-0.903-3.698-2.434-4.832
			s-3.51-1.474-5.332-0.92l-45.247,13.795c-14.84,4.524-25.179,17.443-26.342,32.914l-8.881,118.183h-45.45
			c-18.125,0-32.87,14.746-32.87,32.87c0,7.906,2.807,15.168,7.475,20.844h-4.118c-2.725,0-5.11,1.833-5.811,4.465l-7.054,26.488
			c-30.31-40.654-48.271-91.027-48.271-145.521c0-134.528,109.446-243.974,243.974-243.974s243.974,109.446,243.974,243.974
			c0,52.885-16.921,101.888-45.623,141.895L448.261,375.032z"/>
	</g>
</g>
<g>
	<g>
		<path d="M288.002,88.299v-8.367c0-16.651-13.546-30.197-30.197-30.197c-16.651,0-30.197,13.546-30.197,30.197v8.367
			c-4.698,6.286-7.484,14.081-7.484,22.515v7.215c0,20.777,16.903,37.68,37.68,37.68s37.68-16.903,37.68-37.68v-7.215
			C295.486,102.38,292.701,94.584,288.002,88.299z M257.806,61.759c9.273,0,16.933,6.988,18.024,15.971
			c-5.357-2.931-11.499-4.6-18.024-4.6c-6.525,0-12.667,1.669-18.024,4.6C240.872,68.747,248.531,61.759,257.806,61.759z
			 M257.806,85.158c7.701,0,14.603,3.427,19.31,8.818c-2.059-0.526-4.21-0.805-6.418-0.805c-4.551,0-8.994,1.219-12.892,3.491
			c-3.896-2.273-8.341-3.491-12.892-3.491c-2.22,0-4.375,0.301-6.443,0.832C243.178,88.596,250.091,85.158,257.806,85.158z
			 M283.46,118.029c0,14.146-11.509,25.654-25.654,25.654c-14.146,0-25.654-11.509-25.654-25.654v-3.962
			c1.985-5.333,7.013-8.869,12.763-8.869c3.273,0,6.449,1.197,8.942,3.367c2.264,1.973,5.635,1.973,7.898,0
			c2.493-2.171,5.668-3.367,8.942-3.367c5.75,0,10.777,3.534,12.763,8.868V118.029z"/>
	</g>
</g>
<g>
	<g>
		<path d="M453.722,167.081c-2.381-12.379-13.294-21.76-26.358-21.76c-8.812,0-17.027,4.395-21.995,11.498
			c-7.651-0.355-14.787,3.582-18.754,9.821c-0.346-0.023-0.694-0.034-1.043-0.034c-8.932,0-16.197,7.266-16.197,16.197
			c-0.001,8.931,7.266,16.197,16.196,16.197h64.244c8.931,0,16.199-7.266,16.199-16.199
			C466.014,175.218,460.773,168.834,453.722,167.081z M449.818,186.976h-64.244c-2.3,0-4.172-1.872-4.172-4.173
			s1.869-4.172,4.169-4.172c0.617,0,1.222,0.141,1.798,0.419c1.589,0.764,3.435,0.792,5.047,0.077
			c1.613-0.717,2.828-2.104,3.328-3.797c1.354-4.594,6.174-7.541,11.142-6.161c2.832,0.788,5.819-0.584,7.064-3.249
			c2.43-5.208,7.695-8.573,13.416-8.573c8.151,0,14.784,6.619,14.812,14.764c-0.011,0.16-0.02,0.319-0.025,0.479
			c-0.052,1.794,0.7,3.518,2.05,4.7c1.35,1.181,3.154,1.699,4.929,1.409c0.279-0.046,0.503-0.067,0.685-0.067
			c2.3,0,4.173,1.871,4.173,4.172S452.118,186.976,449.818,186.976z"/>
	</g>
</g>
<g>
	<g>
		<path d="M169.015,113.624c-0.609,0-1.213,0.03-1.813,0.091c-4.507-7.545-13.076-12.276-22.148-11.629
			c-5.63-8.402-15.185-13.629-25.451-13.629c-15.157,0-27.779,11.065-30.215,25.54c-8.203,1.699-14.388,8.982-14.388,17.68
			c0,9.957,8.099,18.057,18.055,18.057h75.959c9.955,0,18.055-8.099,18.055-18.055C187.07,121.724,178.971,113.624,169.015,113.624z
			 M169.015,137.71H93.056c-3.325,0-6.03-2.705-6.03-6.03c0-3.325,2.705-6.031,6.03-6.031c0.278,0,0.6,0.03,0.985,0.094
			c1.776,0.292,3.582-0.226,4.932-1.409c1.352-1.182,2.103-2.907,2.05-4.702c-0.006-0.183-0.017-0.363-0.034-0.536
			c0-10.263,8.349-18.612,18.612-18.612c7.188,0,13.803,4.227,16.855,10.769c1.243,2.665,4.232,4.041,7.063,3.251
			c6.434-1.791,12.754,2.04,14.52,8.031c0.499,1.692,1.715,3.081,3.328,3.797c1.611,0.716,3.459,0.688,5.047-0.077
			c0.831-0.4,1.705-0.602,2.601-0.602c3.325,0,6.03,2.705,6.03,6.03C175.045,135.005,172.34,137.71,169.015,137.71z"/>
	</g>
</g>
<g>
</g>
<g>
</g>
<g>
</g>
<g>
</g>
<g>
</g>
<g>
</g>
<g>
</g>
<g>
</g>
<g>
</g>
<g>
</g>
<g>
</g>
<g>
</g>
<g>
</g>
<g>
</g>
<g>
</g>
</svg>
