<?xml version="1.0" ?><svg width="64px" height="64px" viewBox="0 0 64 64" id="Layer_1" style="enable-background:new 0 0 64 64;" version="1.1" xml:space="preserve" xmlns="http://www.w3.org/2000/svg" xmlns:xlink="http://www.w3.org/1999/xlink"><style type="text/css">
	.st0{fill:#FFFFFF;}
	.st1{fill:#101820;}
</style><g><circle class="st0" cx="32" cy="32" r="32"/></g><g><path class="st1" d="M45.268,16.5c-0.276,0-0.5-0.224-0.5-0.5c0-0.827-0.673-1.5-1.5-1.5c-0.534,0-1.032,0.287-1.299,0.75   c-0.138,0.239-0.444,0.321-0.683,0.182c-0.239-0.138-0.321-0.444-0.182-0.683c0.445-0.771,1.275-1.249,2.165-1.249   c1.378,0,2.5,1.122,2.5,2.5C45.768,16.276,45.544,16.5,45.268,16.5z"/></g><g><path class="st1" d="M45.268,16.5c-0.276,0-0.5-0.224-0.5-0.5c0-1.378,1.122-2.5,2.5-2.5c0.89,0,1.72,0.479,2.165,1.249   c0.139,0.239,0.057,0.545-0.182,0.683c-0.241,0.139-0.545,0.057-0.683-0.182c-0.268-0.463-0.766-0.75-1.3-0.75   c-0.827,0-1.5,0.673-1.5,1.5C45.768,16.276,45.544,16.5,45.268,16.5z"/></g><g><path class="st1" d="M46.268,16.5h-2c-0.276,0-0.5-0.224-0.5-0.5s0.224-0.5,0.5-0.5h2c0.276,0,0.5,0.224,0.5,0.5   S46.544,16.5,46.268,16.5z"/></g><g><path class="st1" d="M47.48,56.5c-0.19,0-0.373-0.109-0.456-0.293C44.353,50.31,38.456,46.5,32,46.5s-12.353,3.81-15.024,9.707   c-0.114,0.251-0.408,0.362-0.662,0.249c-0.251-0.114-0.363-0.41-0.249-0.662C18.897,49.541,25.152,45.5,32,45.5   s13.103,4.041,15.935,10.293c0.114,0.252,0.002,0.548-0.249,0.662C47.619,56.486,47.549,56.5,47.48,56.5z"/></g><g><path class="st1" d="M56,49.676c-0.063,0-0.128-0.012-0.19-0.038L40.901,43.5H23.099L8.19,49.639   c-0.255,0.104-0.547-0.016-0.653-0.272c-0.105-0.255,0.017-0.548,0.272-0.653l15-6.176C22.87,42.513,22.935,42.5,23,42.5h18   c0.065,0,0.13,0.013,0.19,0.038l15,6.176c0.255,0.105,0.377,0.397,0.272,0.653C56.383,49.56,56.196,49.676,56,49.676z"/></g><g><path class="st1" d="M8,46.5c-0.196,0-0.383-0.117-0.462-0.31c-0.105-0.255,0.017-0.548,0.272-0.653l15-6.176   c0.258-0.103,0.548,0.017,0.653,0.272s-0.017,0.548-0.272,0.653l-15,6.176C8.128,46.488,8.063,46.5,8,46.5z"/></g><g><path class="st1" d="M56,46.5c-0.063,0-0.128-0.012-0.19-0.038l-15-6.176c-0.255-0.105-0.377-0.397-0.272-0.653   c0.105-0.255,0.397-0.375,0.653-0.272l15,6.176c0.255,0.105,0.377,0.397,0.272,0.653C56.383,46.383,56.196,46.5,56,46.5z"/></g><g><path class="st1" d="M35,39.5h-6c-0.276,0-0.5-0.224-0.5-0.5v-7c0-1.93,1.57-3.5,3.5-3.5s3.5,1.57,3.5,3.5v7   C35.5,39.276,35.276,39.5,35,39.5z M29.5,38.5h5V32c0-1.378-1.122-2.5-2.5-2.5s-2.5,1.122-2.5,2.5V38.5z"/></g><g><path class="st1" d="M27,39.5h-2c-0.276,0-0.5-0.224-0.5-0.5V28c0-0.276,0.224-0.5,0.5-0.5h2c0.276,0,0.5,0.224,0.5,0.5v11   C27.5,39.276,27.276,39.5,27,39.5z M25.5,38.5h1v-10h-1V38.5z"/></g><g><path class="st1" d="M39,39.5h-2c-0.276,0-0.5-0.224-0.5-0.5V28c0-0.276,0.224-0.5,0.5-0.5h2c0.276,0,0.5,0.224,0.5,0.5v11   C39.5,39.276,39.276,39.5,39,39.5z M37.5,38.5h1v-10h-1V38.5z"/></g><g><path class="st1" d="M28,28.5h-4c-0.276,0-0.5-0.224-0.5-0.5v-2c0-0.276,0.224-0.5,0.5-0.5h4c0.276,0,0.5,0.224,0.5,0.5v2   C28.5,28.276,28.276,28.5,28,28.5z M24.5,27.5h3v-1h-3V27.5z"/></g><g><path class="st1" d="M40,28.5h-4c-0.276,0-0.5-0.224-0.5-0.5v-2c0-0.276,0.224-0.5,0.5-0.5h4c0.276,0,0.5,0.224,0.5,0.5v2   C40.5,28.276,40.276,28.5,40,28.5z M36.5,27.5h3v-1h-3V27.5z"/></g><g><path class="st1" d="M40,26.5h-4c-0.108,0-0.213-0.035-0.3-0.1L32,23.625L28.3,26.4c-0.086,0.065-0.191,0.1-0.3,0.1h-4   c-0.215,0-0.406-0.138-0.474-0.342c-0.068-0.204,0.002-0.429,0.174-0.558l8-6c0.178-0.134,0.422-0.134,0.6,0l8,6   c0.172,0.129,0.243,0.354,0.174,0.558C40.406,26.362,40.215,26.5,40,26.5z M36.167,25.5H38.5L32,20.625L25.5,25.5h2.333l3.867-2.9   c0.178-0.134,0.422-0.134,0.6,0L36.167,25.5z"/></g><g><path class="st1" d="M32,27.5c-0.276,0-0.5-0.224-0.5-0.5v-1c0-0.276,0.224-0.5,0.5-0.5s0.5,0.224,0.5,0.5v1   C32.5,27.276,32.276,27.5,32,27.5z"/></g><g><path class="st1" d="M8,33.5c-0.216,0-0.416-0.141-0.479-0.359c-0.078-0.265,0.073-0.543,0.338-0.621l14-4.118   c0.267-0.079,0.543,0.074,0.621,0.338c0.078,0.265-0.073,0.543-0.338,0.621l-14,4.118C8.094,33.494,8.046,33.5,8,33.5z"/></g><g><path class="st1" d="M8,31.5c-0.213,0-0.41-0.137-0.477-0.351c-0.083-0.263,0.064-0.544,0.328-0.626l14-4.375   c0.262-0.085,0.543,0.064,0.626,0.328c0.083,0.263-0.064,0.544-0.328,0.626l-14,4.375C8.1,31.493,8.049,31.5,8,31.5z"/></g><g><path class="st1" d="M56,33.5c-0.046,0-0.094-0.006-0.141-0.021l-14-4.118c-0.265-0.078-0.417-0.355-0.338-0.621   c0.078-0.264,0.354-0.418,0.621-0.338l14,4.118c0.265,0.078,0.417,0.355,0.338,0.621C56.416,33.359,56.216,33.5,56,33.5z"/></g><g><path class="st1" d="M56,31.5c-0.049,0-0.1-0.007-0.149-0.023l-14-4.375c-0.264-0.082-0.411-0.363-0.328-0.626   c0.082-0.264,0.362-0.414,0.626-0.328l14,4.375c0.264,0.082,0.411,0.363,0.328,0.626C56.41,31.363,56.213,31.5,56,31.5z"/></g><g><path class="st1" d="M17,42.794c-0.098,0-0.195-0.029-0.278-0.084c-0.139-0.093-0.222-0.249-0.222-0.416V36   c0-1.93,1.57-3.5,3.5-3.5s3.5,1.57,3.5,3.5v3.824c0,0.203-0.122,0.385-0.31,0.462l-6,2.47C17.129,42.782,17.064,42.794,17,42.794z    M20,33.5c-1.378,0-2.5,1.122-2.5,2.5v5.547l5-2.059V36C22.5,34.622,21.378,33.5,20,33.5z M23,39.824h0.01H23z"/></g><g><path class="st1" d="M9,46.088c-0.098,0-0.195-0.029-0.278-0.084C8.583,45.911,8.5,45.755,8.5,45.588V38c0-1.93,1.57-3.5,3.5-3.5   s3.5,1.57,3.5,3.5v5.118c0,0.203-0.122,0.385-0.31,0.462l-6,2.471C9.129,46.076,9.064,46.088,9,46.088z M12,35.5   c-1.378,0-2.5,1.122-2.5,2.5v6.842l5-2.059V38C14.5,36.622,13.378,35.5,12,35.5z M15,43.118h0.01H15z"/></g><g><path class="st1" d="M47,42.794c-0.064,0-0.129-0.012-0.19-0.038l-6-2.47c-0.188-0.077-0.31-0.26-0.31-0.462V36   c0-1.93,1.57-3.5,3.5-3.5s3.5,1.57,3.5,3.5v6.294c0,0.167-0.083,0.323-0.222,0.416C47.195,42.765,47.098,42.794,47,42.794z    M41.5,39.489l5,2.059V36c0-1.378-1.122-2.5-2.5-2.5s-2.5,1.122-2.5,2.5V39.489z"/></g><g><path class="st1" d="M55,46.088c-0.064,0-0.129-0.012-0.19-0.038l-6-2.471c-0.188-0.077-0.31-0.26-0.31-0.462V38   c0-1.93,1.57-3.5,3.5-3.5s3.5,1.57,3.5,3.5v7.588c0,0.167-0.083,0.323-0.222,0.416C55.195,46.06,55.098,46.088,55,46.088z    M49.5,42.783l5,2.059V38c0-1.378-1.122-2.5-2.5-2.5s-2.5,1.122-2.5,2.5V42.783z"/></g><g><path class="st1" d="M19.205,30.205c-0.128,0-0.256-0.049-0.354-0.146l-1.681-1.681c-0.195-0.195-0.195-0.512,0-0.707   s0.512-0.195,0.707,0l1.681,1.681c0.195,0.195,0.195,0.512,0,0.707C19.46,30.156,19.333,30.205,19.205,30.205z"/></g><g><path class="st1" d="M15.727,31.227c-0.128,0-0.256-0.049-0.354-0.146l-1.632-1.632c-0.195-0.195-0.195-0.512,0-0.707   s0.512-0.195,0.707,0l1.632,1.632c0.195,0.195,0.195,0.512,0,0.707C15.983,31.178,15.855,31.227,15.727,31.227z"/></g><g><path class="st1" d="M12.25,32.25c-0.128,0-0.256-0.049-0.354-0.146l-1.583-1.583c-0.195-0.195-0.195-0.512,0-0.707   s0.512-0.195,0.707,0l1.583,1.583c0.195,0.195,0.195,0.512,0,0.707C12.506,32.201,12.378,32.25,12.25,32.25z"/></g><g><path class="st1" d="M44.795,30.205c-0.128,0-0.256-0.049-0.354-0.146c-0.195-0.195-0.195-0.512,0-0.707l1.681-1.681   c0.195-0.195,0.512-0.195,0.707,0s0.195,0.512,0,0.707l-1.681,1.681C45.051,30.156,44.923,30.205,44.795,30.205z"/></g><g><path class="st1" d="M48.273,31.227c-0.128,0-0.256-0.049-0.354-0.146c-0.195-0.195-0.195-0.512,0-0.707l1.632-1.632   c0.195-0.195,0.512-0.195,0.707,0s0.195,0.512,0,0.707l-1.632,1.632C48.529,31.178,48.401,31.227,48.273,31.227z"/></g><g><path class="st1" d="M51.75,32.25c-0.128,0-0.256-0.049-0.354-0.146c-0.195-0.195-0.195-0.512,0-0.707l1.583-1.583   c0.195-0.195,0.512-0.195,0.707,0s0.195,0.512,0,0.707l-1.583,1.583C52.006,32.201,51.878,32.25,51.75,32.25z"/></g><g><path class="st1" d="M39,43.5H25c-0.276,0-0.5-0.224-0.5-0.5v-4c0-0.276,0.224-0.5,0.5-0.5h14c0.276,0,0.5,0.224,0.5,0.5v4   C39.5,43.276,39.276,43.5,39,43.5z M25.5,42.5h13v-3h-13V42.5z"/></g><g><path class="st1" d="M40,41.5H24c-0.276,0-0.5-0.224-0.5-0.5s0.224-0.5,0.5-0.5h16c0.276,0,0.5,0.224,0.5,0.5S40.276,41.5,40,41.5z   "/></g><g><path class="st1" d="M23,21.5h-3c-0.276,0-0.5-0.224-0.5-0.5v-0.5c0-0.551-0.449-1-1-1s-1,0.449-1,1V21c0,0.276-0.224,0.5-0.5,0.5   s-0.5-0.224-0.5-0.5v-1c0-1.378-1.122-2.5-2.5-2.5s-2.5,1.122-2.5,2.5v1c0,0.276-0.224,0.5-0.5,0.5H8c-0.276,0-0.5-0.224-0.5-0.5   s0.224-0.5,0.5-0.5h2.5V20c0-1.93,1.57-3.5,3.5-3.5c1.541,0,2.853,1.001,3.319,2.387c0.331-0.243,0.74-0.387,1.181-0.387   c1.103,0,2,0.897,2,2H23c0.276,0,0.5,0.224,0.5,0.5S23.276,21.5,23,21.5z"/></g><g><path class="st1" d="M53,24.5h-3c-0.276,0-0.5-0.224-0.5-0.5s0.224-0.5,0.5-0.5h3c0.276,0,0.5,0.224,0.5,0.5S53.276,24.5,53,24.5z"/></g></svg>